<svg width="157.7849609375px" height="156.80748901367187px" xmlns="http://www.w3.org/2000/svg" viewBox="171.10751953125 -3.4037445068359347 157.7849609375 156.80748901367187" style="background: rgba(0, 0, 0, 0);" preserveAspectRatio="xMidYMid"><defs><filter id="editing-hole" x="-100%" y="-100%" width="300%" height="300%"><feFlood flood-color="#db1b1b" result="black"></feFlood><feMorphology operator="dilate" radius="2" in="SourceGraphic" result="erode"></feMorphology><feGaussianBlur in="erode" stdDeviation="4" result="blur"></feGaussianBlur><feOffset in="blur" dx="2" dy="2" result="offset"></feOffset><feComposite operator="atop" in="offset" in2="black" result="merge"></feComposite><feComposite operator="in" in="merge" in2="SourceGraphic" result="inner-shadow"></feComposite></filter></defs><g filter="url(#editing-hole)"><g transform="translate(199.27999782562256, 98.62937545776367)"><path d="M3.46-7.55L3.46-41.66L3.46-41.66Q4.10-41.86 5.50-42.08L5.50-42.08L5.50-42.08Q6.91-42.30 8.38-42.30L8.38-42.30L8.38-42.30Q9.79-42.30 10.91-42.11L10.91-42.11L10.91-42.11Q12.03-41.92 12.80-41.34L12.80-41.34L12.80-41.34Q13.57-40.77 13.95-39.78L13.95-39.78L13.95-39.78Q14.34-38.78 14.34-37.18L14.34-37.18L14.34-30.91L14.34-30.91Q15.94-31.55 17.38-31.81L17.38-31.81L17.38-31.81Q18.82-32.06 20.54-32.06L20.54-32.06L20.54-32.06Q23.62-32.06 26.37-30.98L26.37-30.98L26.37-30.98Q29.12-29.89 31.23-27.81L31.23-27.81L31.23-27.81Q33.34-25.73 34.56-22.66L34.56-22.66L34.56-22.66Q35.78-19.58 35.78-15.55L35.78-15.55L35.78-15.55Q35.78-11.39 34.53-8.29L34.53-8.29L34.53-8.29Q33.28-5.18 31.04-3.14L31.04-3.14L31.04-3.14Q28.80-1.09 25.57-0.03L25.57-0.03L25.57-0.03Q22.34 1.02 18.43 1.02L18.43 1.02L18.43 1.02Q14.21 1.02 11.26 0.03L11.26 0.03L11.26 0.03Q8.32-0.96 6.27-2.43L6.27-2.43L6.27-2.43Q3.46-4.42 3.46-7.55L3.46-7.55ZM18.43-7.55L18.43-7.55L18.43-7.55Q21.38-7.55 23.01-9.57L23.01-9.57L23.01-9.57Q24.64-11.58 24.64-15.55L24.64-15.55L24.64-15.55Q24.64-19.58 22.98-21.57L22.98-21.57L22.98-21.57Q21.31-23.55 18.50-23.55L18.50-23.55L18.50-23.55Q17.22-23.55 16.29-23.30L16.29-23.30L16.29-23.30Q15.36-23.04 14.27-22.53L14.27-22.53L14.27-8.58L14.27-8.58Q14.98-8.13 15.97-7.84L15.97-7.84L15.97-7.84Q16.96-7.55 18.43-7.55ZM51.97-21.89L51.97-0.06L51.97-0.06Q51.33 0.13 49.95 0.32L49.95 0.32L49.95 0.32Q48.58 0.51 47.10 0.51L47.10 0.51L47.10 0.51Q45.70 0.51 44.58 0.32L44.58 0.32L44.58 0.32Q43.46 0.13 42.69-0.45L42.69-0.45L42.69-0.45Q41.92-1.02 41.50-2.02L41.50-2.02L41.50-2.02Q41.09-3.01 41.09-4.61L41.09-4.61L41.09-23.81L41.09-23.81Q41.09-25.28 41.63-26.34L41.63-26.34L41.63-26.34Q42.18-27.39 43.20-28.22L43.20-28.22L43.20-28.22Q44.22-29.06 45.73-29.73L45.73-29.73L45.73-29.73Q47.23-30.40 48.96-30.91L48.96-30.91L48.96-30.91Q50.69-31.42 52.54-31.71L52.54-31.71L52.54-31.71Q54.40-32 56.26-32L56.26-32L56.26-32Q59.33-32 61.12-30.82L61.12-30.82L61.12-30.82Q62.91-29.63 62.91-26.94L62.91-26.94L62.91-26.94Q62.91-26.05 62.66-25.18L62.66-25.18L62.66-25.18Q62.40-24.32 62.02-23.62L62.02-23.62L62.02-23.62Q60.67-23.62 59.26-23.49L59.26-23.49L59.26-23.49Q57.86-23.36 56.51-23.10L56.51-23.10L56.51-23.10Q55.17-22.85 53.98-22.56L53.98-22.56L53.98-22.56Q52.80-22.27 51.97-21.89L51.97-21.89ZM67.39-12.35L67.39-30.66L67.39-30.66Q68.03-30.85 69.41-31.04L69.41-31.04L69.41-31.04Q70.78-31.23 72.26-31.23L72.26-31.23L72.26-31.23Q73.66-31.23 74.78-31.04L74.78-31.04L74.78-31.04Q75.90-30.85 76.67-30.27L76.67-30.27L76.67-30.27Q77.44-29.70 77.86-28.70L77.86-28.70L77.86-28.70Q78.27-27.71 78.27-26.11L78.27-26.11L78.27-12.35L78.27-12.35Q78.27-9.73 79.55-8.61L79.55-8.61L79.55-8.61Q80.83-7.49 83.26-7.49L83.26-7.49L83.26-7.49Q84.74-7.49 85.66-7.74L85.66-7.74L85.66-7.74Q86.59-8 87.10-8.26L87.10-8.26L87.10-30.66L87.10-30.66Q87.74-30.85 89.12-31.04L89.12-31.04L89.12-31.04Q90.50-31.23 91.97-31.23L91.97-31.23L91.97-31.23Q93.38-31.23 94.50-31.04L94.50-31.04L94.50-31.04Q95.62-30.85 96.38-30.27L96.38-30.27L96.38-30.27Q97.15-29.70 97.57-28.70L97.57-28.70L97.57-28.70Q97.98-27.71 97.98-26.11L97.98-26.11L97.98-6.66L97.98-6.66Q97.98-3.46 95.30-1.86L95.30-1.86L95.30-1.86Q93.06-0.45 89.95 0.29L89.95 0.29L89.95 0.29Q86.85 1.02 83.20 1.02L83.20 1.02L83.20 1.02Q79.74 1.02 76.83 0.26L76.83 0.26L76.83 0.26Q73.92-0.51 71.81-2.11L71.81-2.11L71.81-2.11Q69.70-3.71 68.54-6.24L68.54-6.24L68.54-6.24Q67.39-8.77 67.39-12.35L67.39-12.35ZM69.70-40.77L69.70-40.77L69.70-40.77Q69.70-43.01 71.30-44.64L71.30-44.64L71.30-44.64Q72.90-46.27 75.26-46.27L75.26-46.27L75.26-46.27Q77.95-46.27 79.49-44.64L79.49-44.64L79.49-44.64Q81.02-43.01 81.02-40.77L81.02-40.77L81.02-40.77Q81.02-38.53 79.49-36.90L79.49-36.90L79.49-36.90Q77.95-35.26 75.26-35.26L75.26-35.26L75.26-35.26Q74.11-35.26 73.09-35.71L73.09-35.71L73.09-35.71Q72.06-36.16 71.30-36.90L71.30-36.90L71.30-36.90Q70.53-37.63 70.11-38.62L70.11-38.62L70.11-38.62Q69.70-39.62 69.70-40.77ZM84.03-40.77L84.03-40.77L84.03-40.77Q84.03-43.01 85.54-44.64L85.54-44.64L85.54-44.64Q87.04-46.27 89.73-46.27L89.73-46.27L89.73-46.27Q90.94-46.27 91.97-45.82L91.97-45.82L91.97-45.82Q92.99-45.38 93.76-44.61L93.76-44.61L93.76-44.61Q94.53-43.84 94.94-42.85L94.94-42.85L94.94-42.85Q95.36-41.86 95.36-40.77L95.36-40.77L95.36-40.77Q95.36-38.53 93.76-36.90L93.76-36.90L93.76-36.90Q92.16-35.26 89.73-35.26L89.73-35.26L89.73-35.26Q87.04-35.26 85.54-36.90L85.54-36.90L85.54-36.90Q84.03-38.53 84.03-40.77Z" fill="#000000"></path></g></g><style>text {
  font-size: 64px;
  font-family: Arial Black;
  dominant-baseline: central;
  text-anchor: middle;
}</style></svg>