<svg id="Guide" height="512" viewBox="0 0 512 512" width="512" xmlns="http://www.w3.org/2000/svg"><path d="m441.072 435.234h-45.413v-97.534h36.441a6 6 0 0 0 6-6v-34.582a6 6 0 0 0 -6-6h-36.383l-.058-74.659a10.108 10.108 0 0 0 -10.1-10.1h-30.488v-13.273a6 6 0 0 0 -6-6h-29.387v-33.129l42.035-97.057a23.215 23.215 0 0 0 19.529-22.89v-.831a23.205 23.205 0 0 0 -23.179-23.179h-204.138a23.205 23.205 0 0 0 -23.179 23.179v.831a23.205 23.205 0 0 0 23.179 23.18h2.451l35.934 96.6v33.293h-29.387a6 6 0 0 0 -6 6v13.276h-30.491a10.108 10.108 0 0 0 -10.1 10.1v218.775h-45.41a6 6 0 0 0 -6 6v54.766a6 6 0 0 0 6 6h370.144a6 6 0 0 0 6-6v-54.766a6 6 0 0 0 -6-6zm-14.972-109.534h-98.41v-22.582h98.41zm-196.467 29.834h52.734v23.953h-52.734zm-33.323-12v-54h119.38v54zm96.158-101.221v35.224h-72.936v-35.224zm62.6-6v-17.951h28.59l.056 72.756h-56.024v-7.581a6 6 0 0 0 -6-6h-17.222v-35.224h44.6a6 6 0 0 0 6.003-6zm-212.316-202.303v-.831a11.192 11.192 0 0 1 11.179-11.179h204.138a11.192 11.192 0 0 1 11.179 11.179v.831a11.193 11.193 0 0 1 -11.179 11.18h-204.138a11.193 11.193 0 0 1 -11.179-11.18zm205.764 23.18-38.772 89.524h-107.258l-33.3-89.524zm-144.2 101.524h103.368v28.372h-103.368zm-35.387 40.372h174.142v31.227h-174.142zm-40.588 19.276h28.588v17.951a6 6 0 0 0 6 6h44.6v35.224h-17.219a6 6 0 0 0 -6 6v66a6 6 0 0 0 6 6h27.323v29.953a6 6 0 0 0 6 6h64.734a6 6 0 0 0 6-6v-29.956h27.323a6 6 0 0 0 6-6v-11.834h55.969v97.535h-255.318zm306.731 271.638h-358.144v-42.766h358.144z"/></svg>