<svg width="235.30502319335938px" height="234.0087646484375px" xmlns="http://www.w3.org/2000/svg" viewBox="132.3474884033203 -42.00438232421875 235.30502319335938 234.0087646484375" style="background: rgba(0, 0, 0, 0);" preserveAspectRatio="xMidYMid"><defs><filter id="editing-hole" x="-100%" y="-100%" width="300%" height="300%"><feFlood flood-color="#000000" result="black"></feFlood><feMorphology operator="dilate" radius="2" in="SourceGraphic" result="erode"></feMorphology><feGaussianBlur in="erode" stdDeviation="4" result="blur"></feGaussianBlur><feOffset in="blur" dx="2" dy="2" result="offset"></feOffset><feComposite operator="atop" in="offset" in2="black" result="merge"></feComposite><feComposite operator="in" in="merge" in2="SourceGraphic" result="inner-shadow"></feComposite></filter></defs><g filter="url(#editing-hole)"><g transform="translate(170.74999380111694, 112.11406326293945)"><path d="M5.40-11.80L5.40-65.10L5.40-65.10Q6.40-65.40 8.60-65.75L8.60-65.75L8.60-65.75Q10.80-66.10 13.10-66.10L13.10-66.10L13.10-66.10Q15.30-66.10 17.05-65.80L17.05-65.80L17.05-65.80Q18.80-65.50 20-64.60L20-64.60L20-64.60Q21.20-63.70 21.80-62.15L21.80-62.15L21.80-62.15Q22.40-60.60 22.40-58.10L22.40-58.10L22.40-48.30L22.40-48.30Q24.90-49.30 27.15-49.70L27.15-49.70L27.15-49.70Q29.40-50.10 32.10-50.10L32.10-50.10L32.10-50.10Q36.90-50.10 41.20-48.40L41.20-48.40L41.20-48.40Q45.50-46.70 48.80-43.45L48.80-43.45L48.80-43.45Q52.10-40.20 54-35.40L54-35.40L54-35.40Q55.90-30.60 55.90-24.30L55.90-24.30L55.90-24.30Q55.90-17.80 53.95-12.95L53.95-12.95L53.95-12.95Q52-8.10 48.50-4.90L48.50-4.90L48.50-4.90Q45-1.70 39.95-0.05L39.95-0.05L39.95-0.05Q34.90 1.60 28.80 1.60L28.80 1.60L28.80 1.60Q22.20 1.60 17.60 0.05L17.60 0.05L17.60 0.05Q13-1.50 9.80-3.80L9.80-3.80L9.80-3.80Q5.40-6.90 5.40-11.80L5.40-11.80ZM28.80-11.80L28.80-11.80L28.80-11.80Q33.40-11.80 35.95-14.95L35.95-14.95L35.95-14.95Q38.50-18.10 38.50-24.30L38.50-24.30L38.50-24.30Q38.50-30.60 35.90-33.70L35.90-33.70L35.90-33.70Q33.30-36.80 28.90-36.80L28.90-36.80L28.90-36.80Q26.90-36.80 25.45-36.40L25.45-36.40L25.45-36.40Q24-36 22.30-35.20L22.30-35.20L22.30-13.40L22.30-13.40Q23.40-12.70 24.95-12.25L24.95-12.25L24.95-12.25Q26.50-11.80 28.80-11.80ZM81.20-34.20L81.20-0.10L81.20-0.10Q80.20 0.20 78.05 0.50L78.05 0.50L78.05 0.50Q75.90 0.80 73.60 0.80L73.60 0.80L73.60 0.80Q71.40 0.80 69.65 0.50L69.65 0.50L69.65 0.50Q67.90 0.20 66.70-0.70L66.70-0.70L66.70-0.70Q65.50-1.60 64.85-3.15L64.85-3.15L64.85-3.15Q64.20-4.70 64.20-7.20L64.20-7.20L64.20-37.20L64.20-37.20Q64.20-39.50 65.05-41.15L65.05-41.15L65.05-41.15Q65.90-42.80 67.50-44.10L67.50-44.10L67.50-44.10Q69.10-45.40 71.45-46.45L71.45-46.45L71.45-46.45Q73.80-47.50 76.50-48.30L76.50-48.30L76.50-48.30Q79.20-49.10 82.10-49.55L82.10-49.55L82.10-49.55Q85-50 87.90-50L87.90-50L87.90-50Q92.70-50 95.50-48.15L95.50-48.15L95.50-48.15Q98.30-46.30 98.30-42.10L98.30-42.10L98.30-42.10Q98.30-40.70 97.90-39.35L97.90-39.35L97.90-39.35Q97.50-38 96.90-36.90L96.90-36.90L96.90-36.90Q94.80-36.90 92.60-36.70L92.60-36.70L92.60-36.70Q90.40-36.50 88.30-36.10L88.30-36.10L88.30-36.10Q86.20-35.70 84.35-35.25L84.35-35.25L84.35-35.25Q82.50-34.80 81.20-34.20L81.20-34.20ZM105.30-19.30L105.30-47.90L105.30-47.90Q106.30-48.20 108.45-48.50L108.45-48.50L108.45-48.50Q110.60-48.80 112.90-48.80L112.90-48.80L112.90-48.80Q115.10-48.80 116.85-48.50L116.85-48.50L116.85-48.50Q118.60-48.20 119.80-47.30L119.80-47.30L119.80-47.30Q121-46.40 121.65-44.85L121.65-44.85L121.65-44.85Q122.30-43.30 122.30-40.80L122.30-40.80L122.30-19.30L122.30-19.30Q122.30-15.20 124.30-13.45L124.30-13.45L124.30-13.45Q126.30-11.70 130.10-11.70L130.10-11.70L130.10-11.70Q132.40-11.70 133.85-12.10L133.85-12.10L133.85-12.10Q135.30-12.50 136.10-12.90L136.10-12.90L136.10-47.90L136.10-47.90Q137.10-48.20 139.25-48.50L139.25-48.50L139.25-48.50Q141.40-48.80 143.70-48.80L143.70-48.80L143.70-48.80Q145.90-48.80 147.65-48.50L147.65-48.50L147.65-48.50Q149.40-48.20 150.60-47.30L150.60-47.30L150.60-47.30Q151.80-46.40 152.45-44.85L152.45-44.85L152.45-44.85Q153.10-43.30 153.10-40.80L153.10-40.80L153.10-10.40L153.10-10.40Q153.10-5.40 148.90-2.90L148.90-2.90L148.90-2.90Q145.40-0.70 140.55 0.45L140.55 0.45L140.55 0.45Q135.70 1.60 130 1.60L130 1.60L130 1.60Q124.60 1.60 120.05 0.40L120.05 0.40L120.05 0.40Q115.50-0.80 112.20-3.30L112.20-3.30L112.20-3.30Q108.90-5.80 107.10-9.75L107.10-9.75L107.10-9.75Q105.30-13.70 105.30-19.30L105.30-19.30ZM108.90-63.70L108.90-63.70L108.90-63.70Q108.90-67.20 111.40-69.75L111.40-69.75L111.40-69.75Q113.90-72.30 117.60-72.30L117.60-72.30L117.60-72.30Q121.80-72.30 124.20-69.75L124.20-69.75L124.20-69.75Q126.60-67.20 126.60-63.70L126.60-63.70L126.60-63.70Q126.60-60.20 124.20-57.65L124.20-57.65L124.20-57.65Q121.80-55.10 117.60-55.10L117.60-55.10L117.60-55.10Q115.80-55.10 114.20-55.80L114.20-55.80L114.20-55.80Q112.60-56.50 111.40-57.65L111.40-57.65L111.40-57.65Q110.20-58.80 109.55-60.35L109.55-60.35L109.55-60.35Q108.90-61.90 108.90-63.70ZM131.30-63.70L131.30-63.70L131.30-63.70Q131.30-67.20 133.65-69.75L133.65-69.75L133.65-69.75Q136-72.30 140.20-72.30L140.20-72.30L140.20-72.30Q142.10-72.30 143.70-71.60L143.70-71.60L143.70-71.60Q145.30-70.90 146.50-69.70L146.50-69.70L146.50-69.70Q147.70-68.50 148.35-66.95L148.35-66.95L148.35-66.95Q149-65.40 149-63.70L149-63.70L149-63.70Q149-60.20 146.50-57.65L146.50-57.65L146.50-57.65Q144-55.10 140.20-55.10L140.20-55.10L140.20-55.10Q136-55.10 133.65-57.65L133.65-57.65L133.65-57.65Q131.30-60.20 131.30-63.70Z" fill="#000000"></path></g></g><style>text {
  font-size: 64px;
  font-family: Arial Black;
  dominant-baseline: central;
  text-anchor: middle;
}</style></svg>