<?xml version="1.0" encoding="iso-8859-1"?>
<!-- Generator: Adobe Illustrator 17.1.0, SVG Export Plug-In . SVG Version: 6.00 Build 0)  -->
<!DOCTYPE svg PUBLIC "-//W3C//DTD SVG 1.1//EN" "http://www.w3.org/Graphics/SVG/1.1/DTD/svg11.dtd">
<svg version="1.1" id="Capa_1" xmlns="http://www.w3.org/2000/svg" xmlns:xlink="http://www.w3.org/1999/xlink" x="0px" y="0px"
	 viewBox="0 0 296.238 296.238" style="enable-background:new 0 0 296.238 296.238;" xml:space="preserve">
<g>
	<path d="M244.827,55.398c-9.005,0-17.686,2.377-25.279,6.668c0.735-9.933,1.143-20.533,1.143-31.947c0-4.418-3.582-8-8-8H8
		c-4.418,0-8,3.582-8,8c0,27.336,2.401,52.62,7.343,77.298c4.356,21.761,10.067,40.286,15.59,58.202
		c9.508,30.844,18.488,59.977,18.488,100.5c0,4.418,3.582,8,8,8h121.846c4.418,0,8-3.582,8-8c0-13.645,1.021-25.996,2.735-37.559
		c20.118-11.148,50.064-28.222,63.242-38.141c33.36-25.116,50.994-54.028,50.994-83.611
		C296.238,78.461,273.176,55.398,244.827,55.398z M57.312,258.119c-1.073-38.767-9.841-67.212-19.089-97.213
		c-10.421-33.806-21.18-68.705-22.151-122.787h188.548c-0.972,54.082-11.732,88.981-22.153,122.786
		c-9.248,30.002-18.017,58.447-19.09,97.214H57.312z M235.621,177.637c-10.079,7.587-31.48,20.115-49.754,30.422
		c3.317-14.621,7.547-28.354,11.889-42.439c7.482-24.273,15.131-49.102,19.432-80.914c6.664-8.313,16.809-13.307,27.64-13.307
		c19.525,0,35.411,15.885,35.411,35.41C280.238,123.797,272.498,149.875,235.621,177.637z"/>
</g>
<g>
</g>
<g>
</g>
<g>
</g>
<g>
</g>
<g>
</g>
<g>
</g>
<g>
</g>
<g>
</g>
<g>
</g>
<g>
</g>
<g>
</g>
<g>
</g>
<g>
</g>
<g>
</g>
<g>
</g>
</svg>