<svg id="Guide" height="512" viewBox="0 0 512 512" width="512" xmlns="http://www.w3.org/2000/svg"><path d="m92.135 502h242.348a26.029 26.029 0 0 0 26-26v-21.986l73.6-65.8a108.767 108.767 0 0 0 -73.6-189.849v-52.477a6 6 0 0 0 -6-6h-282.348a6 6 0 0 0 -6 6v330.112a26.029 26.029 0 0 0 26 26zm317.818-278.685a96.773 96.773 0 0 1 16.128 155.956l-65.6 58.648v-227.551a96.686 96.686 0 0 1 49.472 12.947zm-331.818-71.427h270.348v324.112a14.016 14.016 0 0 1 -14 14h-242.348a14.017 14.017 0 0 1 -14-14z"/><path d="m115.727 351.073a6 6 0 0 0 6-6v-154.921a6 6 0 0 0 -12 0v154.921a6 6 0 0 0 6 6z"/><path d="m115.727 426.944a6 6 0 0 0 6-6v-37.717a6 6 0 0 0 -12 0v37.717a6 6 0 0 0 6 6z"/><path d="m129.817 117.815a6 6 0 0 0 6-6v-39.337a6 6 0 1 0 -12 0v39.337a6 6 0 0 0 6 6z"/><path d="m191.6 117.815a6 6 0 0 0 6-6v-95.815a6 6 0 0 0 -12 0v95.815a6 6 0 0 0 6 6z"/><path d="m242.778 117.815a6 6 0 0 0 6-6v-31.276a6 6 0 0 0 -12 0v31.276a6 6 0 0 0 6 6z"/><path d="m296.8 117.815a6 6 0 0 0 6-6v-75.348a6 6 0 1 0 -12 0v75.348a6 6 0 0 0 6 6z"/></svg>